<mxfile host="app.diagrams.net" modified="2024-01-10T14:13:21.639Z" agent="Mozilla/5.0 (Macintosh; Intel Mac OS X 10_15_7) AppleWebKit/537.36 (KHTML, like Gecko) Chrome/120.0.0.0 Safari/537.36" version="22.1.18" etag="lbSC0AmqisBJshFAC5b-" type="github">
  <diagram name="Page-1" id="aMjgwaSqgiP_8J2P-mOR">
    <mxGraphModel>
      <root>
        <mxCell id="0" />
        <mxCell id="1" parent="0" />
      </root>
    </mxGraphModel>
  </diagram>
</mxfile>
